<svg width="252" height="36" viewBox="0 0 252 36" fill="none" xmlns="http://www.w3.org/2000/svg">
<g clip-path="url(#clip0_1168_4063)">
<path fill-rule="evenodd" clip-rule="evenodd" d="M132.669 -0.0647488C134.957 -0.0647488 137.244 -0.0647488 139.532 -0.0647488C139.47 8.09835 139.535 16.2566 139.727 24.4101C140.072 25.3599 140.742 25.9427 141.734 26.1583C143.632 26.223 145.532 26.2446 147.432 26.223C147.432 28.2518 147.432 30.2805 147.432 32.3094C145.096 32.3611 142.765 32.2964 140.439 32.1151C136.417 31.1571 133.892 28.675 132.863 24.6691C132.677 21.4797 132.612 18.2855 132.669 15.0863C131.417 15.0863 130.166 15.0863 128.914 15.0863C128.914 13.1439 128.914 11.2014 128.914 9.25899C130.166 9.25899 131.417 9.25899 132.669 9.25899C132.669 6.15108 132.669 3.04316 132.669 -0.0647488Z" fill="#16997F"/>
<path fill-rule="evenodd" clip-rule="evenodd" d="M-0.0647507 7.83453C-0.0647507 7.4892 -0.0647507 7.14389 -0.0647507 6.79856C0.252839 4.64835 1.50464 3.41814 3.69065 3.10791C9.68736 2.89738 15.6873 2.85422 21.6906 2.97842C18.0057 3.93332 14.4662 5.27145 11.0719 6.99281C7.56318 9.03452 4.95167 11.905 3.23741 15.6043C1.52525 13.2608 0.424523 10.6709 -0.0647507 7.83453Z" fill="#16997F"/>
<path fill-rule="evenodd" clip-rule="evenodd" d="M31.0144 3.04317C34.3129 2.60908 35.8884 4.03354 35.741 7.31655C35.347 9.83678 34.6132 12.2541 33.5396 14.5683C31.9469 17.9267 30.2203 21.2072 28.3597 24.4101C27.8716 22.5407 26.6847 21.3537 24.7986 20.8489C23.0072 20.469 21.1943 20.2747 19.3597 20.2662C16.3389 20.4011 13.3174 20.4227 10.295 20.3309C8.87023 20.2887 7.68318 19.7492 6.73381 18.7122C6.05958 17.3605 6.1459 16.0656 6.9928 14.8273C9.37423 11.8004 12.3311 9.49105 15.8633 7.89928C20.7664 5.7787 25.8168 4.15999 31.0144 3.04317Z" fill="#16997F"/>
<path fill-rule="evenodd" clip-rule="evenodd" d="M84.2374 6.15108C90.3503 6.23845 94.6884 9.04421 97.2518 14.5683C98.2094 17.1067 98.4037 19.6967 97.8345 22.3381C93.4316 22.5107 89.0288 22.5107 84.6259 22.3381C83.563 20.6222 82.4838 18.9171 81.3885 17.223C84.6268 17.2014 87.8642 17.1366 91.1007 17.0288C89.3798 13.0387 86.4445 11.679 82.295 12.9496C79.7416 14.3424 78.4035 16.5007 78.2806 19.4245C78.5747 22.7394 80.2581 25.0271 83.3309 26.2878C85.094 26.6768 86.7775 26.461 88.3813 25.6403C88.9061 25.2609 89.3594 24.8076 89.741 24.2806C91.7385 25.2252 93.7457 26.1533 95.7626 27.0647C91.9075 31.947 86.9435 33.6305 80.8705 32.1151C74.6437 29.6993 71.5574 25.1453 71.6115 18.4532C72.2649 13.0961 75.0491 9.31915 79.964 7.1223C81.3647 6.60986 82.7891 6.28612 84.2374 6.15108Z" fill="#16997F"/>
<path fill-rule="evenodd" clip-rule="evenodd" d="M114.669 6.15108C117.199 6.03307 119.616 6.48631 121.921 7.51079C124.277 8.96159 125.723 11.0551 126.259 13.7914C126.425 14.6492 126.554 15.5124 126.647 16.3813C126.823 21.689 126.888 26.9983 126.842 32.3094C124.468 32.3094 122.093 32.3094 119.719 32.3094C119.741 27.3884 119.719 22.4675 119.655 17.5468C119.752 13.7644 117.918 12.0594 114.151 12.4317C113.169 12.5697 112.219 12.7855 111.302 13.0791C110.466 11.6436 109.646 10.1976 108.842 8.74101C109.866 7.73173 111.075 7.0195 112.468 6.60432C113.214 6.4249 113.948 6.27382 114.669 6.15108Z" fill="#16997F"/>
<path fill-rule="evenodd" clip-rule="evenodd" d="M161.806 6.15108C165.375 5.93601 168.288 7.18781 170.547 9.90648C170.612 8.785 170.634 7.6627 170.612 6.53957C172.9 6.53957 175.187 6.53957 177.475 6.53957C177.475 15.1295 177.475 23.7195 177.475 32.3094C175.187 32.3094 172.9 32.3094 170.612 32.3094C170.671 27.4703 170.606 22.6358 170.417 17.8058C169.392 14.406 167.103 12.5931 163.554 12.3669C159.199 12.7718 156.803 15.1459 156.367 19.4892C156.736 23.3323 158.808 25.6416 162.583 26.4173C163.812 26.58 164.999 26.4289 166.144 25.964C167.119 27.5039 168.047 29.0795 168.928 30.6907C166.601 32.3394 164.011 32.9869 161.158 32.6331C154.607 31.5202 150.7 27.7001 149.439 21.1727C148.964 15.3667 151.187 10.9423 156.108 7.89928C157.901 6.91236 159.8 6.32963 161.806 6.15108Z" fill="#16997F"/>
<path fill-rule="evenodd" clip-rule="evenodd" d="M195.086 6.15108C197.473 6.09292 199.717 6.61091 201.82 7.70503C200.741 9.60432 199.661 11.5036 198.583 13.4029C195.813 11.9472 193.136 12.0983 190.554 13.8561C189.267 14.9427 188.425 16.3024 188.029 17.9353C187.964 22.7264 187.942 27.5177 187.964 32.3094C185.59 32.3094 183.215 32.3094 180.842 32.3094C180.842 23.7195 180.842 15.1295 180.842 6.53957C183.215 6.53957 185.59 6.53957 187.964 6.53957C187.942 7.61957 187.964 8.6987 188.029 9.77698C189.827 7.48582 192.179 6.27719 195.086 6.15108Z" fill="#16997F"/>
<path fill-rule="evenodd" clip-rule="evenodd" d="M251.935 6.53957C251.935 15.1295 251.935 23.7195 251.935 32.3094C249.647 32.3094 247.36 32.3094 245.072 32.3094C245.094 27.6905 245.072 23.0717 245.007 18.4532C244.164 14.718 241.833 12.6892 238.014 12.3669C233.665 12.7675 231.269 15.1416 230.827 19.4892C231.194 23.3308 233.266 25.6402 237.043 26.4173C238.272 26.58 239.46 26.4289 240.604 25.964C241.579 27.5039 242.508 29.0795 243.388 30.6906C240.543 32.6085 237.436 33.1696 234.065 32.3741C227.62 30.4611 224.21 26.1445 223.835 19.4245C224.188 13.1037 227.34 8.87346 233.288 6.73381C236.419 5.79645 239.44 6.05545 242.353 7.51079C243.399 8.1251 244.283 8.92365 245.007 9.90648C245.072 8.785 245.094 7.6627 245.072 6.53957C247.36 6.53957 249.647 6.53957 251.935 6.53957Z" fill="#16997F"/>
<path fill-rule="evenodd" clip-rule="evenodd" d="M210.755 6.28057C216.487 5.93066 220.89 8.15369 223.964 12.9496C222.051 14.129 220.174 15.3592 218.331 16.6403C217.15 14.066 215.165 12.5984 212.374 12.2374C208.808 12.6515 206.693 14.6371 206.029 18.1942C205.607 21.254 206.621 23.6928 209.072 25.5108C213.155 27.3439 216.242 26.2863 218.331 22.3381C220.174 23.6192 222.051 24.8495 223.964 26.0288C220.47 31.4005 215.549 33.5157 209.201 32.3741C203.509 30.61 200.164 26.7898 199.165 20.9137C198.821 15.1924 201.087 10.8542 205.964 7.89928C207.477 7.05846 209.073 6.51889 210.755 6.28057Z" fill="#16997F"/>
<path fill-rule="evenodd" clip-rule="evenodd" d="M44.741 6.53957C47.2446 6.53957 49.7482 6.53957 52.2518 6.53957C54.3625 12.8066 56.5639 19.044 58.8561 25.2518C57.2838 26.781 55.7514 28.3566 54.259 29.9784C51.0222 22.1883 47.8496 14.3754 44.741 6.53957Z" fill="#16997F"/>
<path fill-rule="evenodd" clip-rule="evenodd" d="M66.1079 6.53957C68.5699 6.49646 71.0303 6.53962 73.4892 6.66906C70.0181 15.1831 66.5217 23.6867 63 32.1799C60.9712 32.3525 58.9425 32.3525 56.9137 32.1799C60.0304 23.6498 63.0952 15.103 66.1079 6.53957Z" fill="#16997F"/>
<path fill-rule="evenodd" clip-rule="evenodd" d="M100.554 6.53957C102.928 6.53957 105.302 6.53957 107.676 6.53957C107.676 15.1295 107.676 23.7195 107.676 32.3094C105.302 32.3094 102.928 32.3094 100.554 32.3094C100.554 23.7195 100.554 15.1295 100.554 6.53957Z" fill="#16997F"/>
<path fill-rule="evenodd" clip-rule="evenodd" d="M140.309 9.38849C142.661 9.25941 145.035 9.21623 147.432 9.25899C147.432 11.2014 147.432 13.1439 147.432 15.0863C146.135 15.1078 144.84 15.0863 143.547 15.0216C142.447 13.1463 141.369 11.2686 140.309 9.38849Z" fill="#16997F"/>
<path fill-rule="evenodd" clip-rule="evenodd" d="M18.9712 35.9353C18.8848 35.9353 18.7986 35.9353 18.7122 35.9353C17.8436 35.8542 17.0235 35.5737 16.2518 35.0935C15.203 34.3042 14.2318 33.4194 13.3381 32.4388C11.0622 29.312 8.88238 26.1177 6.79856 22.8561C6.84172 22.813 6.8849 22.7697 6.92806 22.7266C11.9743 23.1594 17.0246 23.5694 22.0791 23.9568C23.382 24.1023 24.4827 24.6419 25.3813 25.5755C25.6953 25.956 25.8248 26.3877 25.7698 26.8705C25.1062 28.8614 24.2429 30.7607 23.1799 32.5683C22.243 34.3068 20.8401 35.429 18.9712 35.9353Z" fill="#16997F"/>
</g>
<defs>
<clipPath id="clip0_1168_4063">
<rect width="252" height="36" fill="white"/>
</clipPath>
</defs>
</svg>
