<svg width="25" height="24" viewBox="0 0 25 24" fill="none" xmlns="http://www.w3.org/2000/svg">
<path d="M19.2098 19.5C18.3798 20.74 17.4998 21.95 16.1598 21.97C14.8198 22 14.3898 21.18 12.8698 21.18C11.3398 21.18 10.8698 21.95 9.59985 22C8.28985 22.05 7.29985 20.68 6.45985 19.47C4.74985 17 3.43985 12.45 5.19985 9.39C6.06985 7.87 7.62985 6.91 9.31985 6.88C10.5998 6.86 11.8198 7.75 12.6098 7.75C13.3898 7.75 14.8698 6.68 16.4198 6.84C17.0698 6.87 18.8898 7.1 20.0598 8.82C19.9698 8.88 17.8898 10.1 17.9098 12.63C17.9398 15.65 20.5598 16.66 20.5898 16.67C20.5598 16.74 20.1698 18.11 19.2098 19.5ZM13.4998 3.5C14.2298 2.67 15.4398 2.04 16.4398 2C16.5698 3.17 16.0998 4.35 15.3998 5.19C14.7098 6.04 13.5698 6.7 12.4498 6.61C12.2998 5.46 12.8598 4.26 13.4998 3.5Z" fill="black"/>
</svg>
