<svg width="48" height="48" viewBox="0 0 48 48" fill="none" xmlns="http://www.w3.org/2000/svg">
<g clip-path="url(#clip0_1158_16383)">
<path d="M21.7305 12.6857C21.4949 12.0163 21.0574 11.4365 20.4783 11.0263C19.8992 10.616 19.2071 10.3956 18.4974 10.3954H15.8402C15.0864 10.3975 14.3599 10.6777 13.7998 11.1821C13.2397 11.6866 12.8854 12.38 12.8047 13.1294C12.724 13.8789 12.9227 14.6318 13.3626 15.2439C13.8025 15.856 14.4527 16.2844 15.1888 16.4469L19.2277 17.3314C20.0541 17.5118 20.7847 17.9913 21.2789 18.6778C21.7732 19.3642 21.9963 20.2091 21.9052 21.0501C21.8142 21.8911 21.4155 22.6687 20.7858 23.2335C20.1561 23.7983 19.3398 24.1104 18.494 24.1097H16.2071C15.4982 24.11 14.8067 23.8906 14.2277 23.4817C13.6487 23.0728 13.2107 22.4944 12.974 21.8263M17.3557 10.3954V6.96686M17.3557 27.5383V24.1097M23.894 46.2823V28.2823C23.894 27.1456 24.3455 26.0556 25.1492 25.2518C25.9529 24.4481 27.043 23.9966 28.1797 23.9966C29.3163 23.9966 30.4064 24.4481 31.2101 25.2518C32.0138 26.0556 32.4654 27.1456 32.4654 28.2823V37.7109H39.3225C41.1411 37.7109 42.8853 38.4333 44.1713 39.7193C45.4572 41.0052 46.1797 42.7494 46.1797 44.568V46.2823" stroke="black" stroke-width="3.42857" stroke-linecap="round" stroke-linejoin="round"/>
<path d="M17.3589 32.7909C14.1956 32.7904 11.1079 31.8243 8.50845 30.0217C5.90904 28.2191 3.92187 25.6659 2.81262 22.7035C1.70337 19.7411 1.52492 16.5107 2.30111 13.4441C3.07731 10.3775 4.77117 7.62099 7.15622 5.54304C9.54127 3.46509 12.5038 2.16476 15.6478 1.8159C18.7918 1.46705 21.9674 2.0863 24.7499 3.59085C27.5325 5.09541 29.7894 7.41357 31.219 10.2354C32.6486 13.0572 33.1826 16.2482 32.7498 19.3817" stroke="black" stroke-width="3.42857" stroke-linecap="round"/>
</g>
<defs>
<clipPath id="clip0_1158_16383">
<rect width="48" height="48" fill="white"/>
</clipPath>
</defs>
</svg>
