<svg width="24" height="24" viewBox="0 0 24 24" fill="none" xmlns="http://www.w3.org/2000/svg">
<path d="M12.0001 2.57141C6.79359 2.57141 2.53369 6.82184 2.53369 12.0568C2.53369 16.79 5.99841 20.7186 10.5234 21.4286V14.802H8.11889V12.0568H10.5234V9.9647C10.5234 7.58862 11.9339 6.28225 14.1017 6.28225C15.1335 6.28225 16.2127 6.46212 16.2127 6.46212V8.80033H15.0199C13.8461 8.80033 13.4769 9.52924 13.4769 10.2771V12.0568H16.1086L15.6826 14.802H13.4769V21.4286C15.7076 21.0763 17.7389 19.9381 19.204 18.2195C20.6692 16.5009 21.4716 14.3151 21.4666 12.0568C21.4666 6.82184 17.2067 2.57141 12.0001 2.57141Z" fill="black"/>
</svg>
