<svg width="74" height="74" viewBox="0 0 74 74" fill="none" xmlns="http://www.w3.org/2000/svg">
<path d="M40.3333 40.3333H33V18.3333H40.3333M40.3333 55H33V47.6667H40.3333M36.6667 0C31.8515 0 27.0835 0.948412 22.6349 2.79108C18.1863 4.63376 14.1442 7.3346 10.7394 10.7394C3.86308 17.6158 0 26.9421 0 36.6667C0 46.3913 3.86308 55.7176 10.7394 62.5939C14.1442 65.9987 18.1863 68.6996 22.6349 70.5423C27.0835 72.3849 31.8515 73.3333 36.6667 73.3333C46.3913 73.3333 55.7176 69.4703 62.5939 62.5939C69.4703 55.7176 73.3333 46.3913 73.3333 36.6667C73.3333 31.8515 72.3849 27.0835 70.5423 22.6349C68.6996 18.1863 65.9987 14.1442 62.5939 10.7394C59.1891 7.3346 55.147 4.63376 50.6984 2.79108C46.2498 0.948412 41.4818 0 36.6667 0Z" fill="#E74C3C"/>
</svg>
