<svg width="56" height="40" viewBox="0 0 56 40" fill="none" xmlns="http://www.w3.org/2000/svg">
<path d="M14.25 40C10.45 40 7.20833 38.6917 4.525 36.075C1.84167 33.4417 0.5 30.2333 0.5 26.45C0.5 23.2 1.475 20.3 3.425 17.75C5.39167 15.2 7.95833 13.575 11.125 12.875C12.175 9.04167 14.2583 5.94167 17.375 3.575C20.5083 1.19167 24.05 0 28 0C32.8833 0 37.0167 1.7 40.4 5.1C43.8 8.48333 45.5 12.6167 45.5 17.5C48.3833 17.8333 50.7667 19.0833 52.65 21.25C54.55 23.3833 55.5 25.8833 55.5 28.75C55.5 31.8833 54.4083 34.5417 52.225 36.725C50.0417 38.9083 47.3833 40 44.25 40H30.5C29.1333 40 27.9583 39.5083 26.975 38.525C25.9917 37.5583 25.5 36.3833 25.5 35V22.125L21.5 26L18 22.5L28 12.5L38 22.5L34.5 26L30.5 22.125V35H44.25C46 35 47.475 34.3917 48.675 33.175C49.8917 31.975 50.5 30.5 50.5 28.75C50.5 27 49.8917 25.525 48.675 24.325C47.475 23.1083 46 22.5 44.25 22.5H40.5V17.5C40.5 14.05 39.2833 11.1 36.85 8.65C34.4167 6.21667 31.4667 5 28 5C24.55 5 21.6 6.21667 19.15 8.65C16.7167 11.1 15.5 14.05 15.5 17.5H14.25C11.8333 17.5 9.775 18.3583 8.075 20.075C6.35833 21.775 5.5 23.8333 5.5 26.25C5.5 28.6667 6.35833 30.75 8.075 32.5C9.775 34.1667 11.8333 35 14.25 35H20.5V40" fill="#666666"/>
</svg>
