<svg width="32" height="33" viewBox="0 0 32 33" fill="none" xmlns="http://www.w3.org/2000/svg">
<path d="M24.9601 20.18C25.4267 19.0467 25.6801 17.8333 25.6801 16.5C25.6801 15.54 25.5334 14.62 25.2801 13.7667C24.4134 13.9667 23.5067 14.0733 22.5601 14.0733C20.6214 14.0754 18.7106 13.6114 16.9888 12.7203C15.267 11.8292 13.7847 10.5373 12.6667 8.95334C11.472 11.8477 9.2157 14.1755 6.36008 15.46C6.30675 15.7933 6.30675 16.1533 6.30675 16.5C6.30675 17.773 6.55747 19.0334 7.04461 20.2095C7.53174 21.3855 8.24575 22.4541 9.14586 23.3542C10.9637 25.1721 13.4292 26.1933 16.0001 26.1933C17.4001 26.1933 18.7467 25.8867 19.9601 25.34C20.7201 26.7933 21.0667 27.5133 21.0401 27.5133C18.8534 28.2467 17.1601 28.6067 16.0001 28.6067C12.7734 28.6067 9.69341 27.34 7.42675 25.06C6.04681 23.6866 5.02178 21.998 4.44008 20.14H2.66675V14.0733H4.12008C4.5604 11.93 5.57274 9.94589 7.04967 8.33147C8.5266 6.71704 10.413 5.53255 12.5088 4.90369C14.6045 4.27482 16.8315 4.22504 18.9532 4.75962C21.075 5.2942 23.0125 6.3932 24.5601 7.94001C26.2398 9.61412 27.3858 11.7484 27.8534 14.0733H29.3334V20.14H29.2534L24.5067 24.5L17.4401 23.7V21.4733H23.8801L24.9601 20.18ZM12.3601 16.1933C12.7601 16.1933 13.1467 16.3533 13.4267 16.6467C13.7081 16.9304 13.866 17.3138 13.866 17.7133C13.866 18.1129 13.7081 18.4963 13.4267 18.78C13.1467 19.06 12.7601 19.22 12.3601 19.22C11.5201 19.22 10.8401 18.5533 10.8401 17.7133C10.8401 16.8733 11.5201 16.1933 12.3601 16.1933ZM19.6267 16.1933C20.4667 16.1933 21.1334 16.8733 21.1334 17.7133C21.1334 18.5533 20.4667 19.22 19.6267 19.22C18.7867 19.22 18.1067 18.5533 18.1067 17.7133C18.1067 17.3102 18.2669 16.9236 18.5519 16.6385C18.837 16.3535 19.2236 16.1933 19.6267 16.1933Z" fill="white"/>
</svg>
