<svg width="24" height="24" viewBox="0 0 24 24" fill="none" xmlns="http://www.w3.org/2000/svg">
<path d="M10.833 8.50001H13.1663V6.16668H10.833M11.9997 21.3333C6.85468 21.3333 2.66634 17.145 2.66634 12C2.66634 6.85501 6.85468 2.66668 11.9997 2.66668C17.1447 2.66668 21.333 6.85501 21.333 12C21.333 17.145 17.1447 21.3333 11.9997 21.3333ZM11.9997 0.333344C10.4676 0.333344 8.9505 0.635111 7.53503 1.22142C6.11957 1.80772 4.83345 2.66708 3.7501 3.75043C1.56217 5.93836 0.333008 8.90582 0.333008 12C0.333008 15.0942 1.56217 18.0617 3.7501 20.2496C4.83345 21.3329 6.11957 22.1923 7.53503 22.7786C8.9505 23.3649 10.4676 23.6667 11.9997 23.6667C15.0939 23.6667 18.0613 22.4375 20.2493 20.2496C22.4372 18.0617 23.6663 15.0942 23.6663 12C23.6663 10.4679 23.3646 8.95084 22.7783 7.53537C22.192 6.1199 21.3326 4.83378 20.2493 3.75043C19.1659 2.66708 17.8798 1.80772 16.4643 1.22142C15.0489 0.635111 13.5318 0.333344 11.9997 0.333344ZM10.833 17.8333H13.1663V10.8333H10.833V17.8333Z" fill="#333333"/>
</svg>
