<svg width="24" height="24" viewBox="0 0 24 24" fill="none" xmlns="http://www.w3.org/2000/svg">
<path d="M12.4977 8.57013C10.8451 8.57013 9.49647 9.91879 9.49647 11.5714C9.49647 13.224 10.8451 14.5727 12.4977 14.5727C14.1504 14.5727 15.499 13.224 15.499 11.5714C15.499 9.91879 14.1504 8.57013 12.4977 8.57013ZM21.4993 11.5714C21.4993 10.3286 21.5106 9.09699 21.4408 7.8564C21.371 6.41543 21.0423 5.13656 19.9886 4.08285C18.9326 3.02689 17.656 2.70042 16.215 2.63062C14.9722 2.56082 13.7406 2.57208 12.5 2.57208C11.2572 2.57208 10.0256 2.56082 8.78499 2.63062C7.34402 2.70042 6.06515 3.02914 5.01144 4.08285C3.95548 5.13881 3.62901 6.41543 3.55921 7.8564C3.48941 9.09924 3.50067 10.3308 3.50067 11.5714C3.50067 12.812 3.48941 14.0458 3.55921 15.2864C3.62901 16.7274 3.95773 18.0063 5.01144 19.06C6.0674 20.1159 7.34402 20.4424 8.78499 20.5122C10.0278 20.582 11.2594 20.5707 12.5 20.5707C13.7428 20.5707 14.9744 20.582 16.215 20.5122C17.656 20.4424 18.9348 20.1137 19.9886 19.06C21.0445 18.004 21.371 16.7274 21.4408 15.2864C21.5128 14.0458 21.4993 12.8143 21.4993 11.5714ZM12.4977 16.1893C9.94227 16.1893 7.87988 14.1269 7.87988 11.5714C7.87988 9.01593 9.94227 6.95354 12.4977 6.95354C15.0532 6.95354 17.1156 9.01593 17.1156 11.5714C17.1156 14.1269 15.0532 16.1893 12.4977 16.1893ZM17.3047 7.84289C16.7081 7.84289 16.2263 7.36107 16.2263 6.76441C16.2263 6.16776 16.7081 5.68593 17.3047 5.68593C17.9014 5.68593 18.3832 6.16776 18.3832 6.76441C18.3834 6.90609 18.3556 7.04641 18.3015 7.17734C18.2474 7.30827 18.1679 7.42723 18.0677 7.52741C17.9676 7.62759 17.8486 7.70702 17.7177 7.76116C17.5867 7.8153 17.4464 7.84307 17.3047 7.84289Z" fill="black"/>
</svg>
