<svg width="168" height="24" viewBox="0 0 168 24" fill="none" xmlns="http://www.w3.org/2000/svg">
<g clip-path="url(#clip0_2251_566)">
<path fill-rule="evenodd" clip-rule="evenodd" d="M88.446 -0.0432129C89.9714 -0.0432129 91.4961 -0.0432129 93.0215 -0.0432129C92.9801 5.39886 93.0232 10.8377 93.151 16.2733C93.3815 16.9066 93.8279 17.2951 94.4891 17.4388C95.7548 17.482 97.0212 17.4964 98.2877 17.482C98.2877 18.8345 98.2877 20.187 98.2877 21.5395C96.7303 21.5741 95.1763 21.5309 93.6258 21.41C90.9444 20.7713 89.2609 19.1166 88.5755 16.446C88.4512 14.3198 88.408 12.1903 88.446 10.0575C87.6112 10.0575 86.7772 10.0575 85.9424 10.0575C85.9424 8.76254 85.9424 7.46758 85.9424 6.17261C86.7772 6.17261 87.6112 6.17261 88.446 6.17261C88.446 4.10067 88.446 2.02873 88.446 -0.0432129Z" fill="#16997E"/>
<path fill-rule="evenodd" clip-rule="evenodd" d="M-0.0429688 5.22295C-0.0429688 4.99273 -0.0429688 4.76252 -0.0429688 4.5323C0.168758 3.09883 1.00329 2.27868 2.46063 2.07187C6.45844 1.93151 10.4584 1.90274 14.4606 1.98554C12.004 2.62214 9.64431 3.51423 7.38149 4.6618C5.04232 6.02294 3.30131 7.93661 2.15847 10.4028C1.01703 8.84047 0.283214 7.11384 -0.0429688 5.22295Z" fill="#16997E"/>
<path fill-rule="evenodd" clip-rule="evenodd" d="M20.6763 2.02872C22.8754 1.73933 23.9257 2.68897 23.8274 4.87764C23.5647 6.5578 23.0756 8.16931 22.3598 9.71217C21.298 11.9511 20.147 14.1381 18.9066 16.2733C18.5812 15.0271 17.7899 14.2357 16.5325 13.8992C15.3382 13.6459 14.1296 13.5164 12.9066 13.5107C10.8927 13.6007 8.87835 13.6151 6.86338 13.5539C5.91356 13.5258 5.12219 13.1661 4.48928 12.4748C4.03979 11.5736 4.09734 10.7103 4.66195 9.88483C6.24956 7.86688 8.22078 6.32731 10.5756 5.26613C13.8444 3.85241 17.2113 2.77327 20.6763 2.02872Z" fill="#16997E"/>
<path fill-rule="evenodd" clip-rule="evenodd" d="M56.158 4.10083C60.2332 4.15908 63.1253 6.02958 64.8342 9.71234C65.4726 11.4046 65.6021 13.1312 65.2227 14.8922C62.2875 15.0073 59.3522 15.0073 56.417 14.8922C55.7084 13.7482 54.9889 12.6115 54.2587 11.4821C56.4176 11.4677 58.5758 11.4245 60.7335 11.3526C59.5863 8.6926 57.6294 7.78613 54.863 8.6332C53.1607 9.56169 52.2687 11.0006 52.1867 12.9498C52.3828 15.1597 53.5051 16.6849 55.5537 17.5253C56.729 17.7846 57.8513 17.6408 58.9206 17.0936C59.2705 16.8407 59.5726 16.5385 59.827 16.1872C61.1587 16.8169 62.4968 17.4357 63.8414 18.0433C61.2713 21.2981 57.962 22.4204 53.9134 21.4102C49.7621 19.7997 47.7046 16.7637 47.7407 12.3023C48.1763 8.73084 50.0324 6.21288 53.309 4.74831C54.2428 4.40668 55.1924 4.19086 56.158 4.10083Z" fill="#16997E"/>
<path fill-rule="evenodd" clip-rule="evenodd" d="M76.4464 4.10081C78.1331 4.02214 79.7446 4.3243 81.2809 5.00729C82.852 5.97449 83.816 7.37017 84.173 9.19434C84.2835 9.76619 84.3699 10.3417 84.432 10.921C84.549 14.4594 84.5922 17.999 84.5615 21.5397C82.9788 21.5397 81.396 21.5397 79.8133 21.5397C79.8277 18.259 79.8133 14.9784 79.7702 11.6979C79.8353 9.17638 78.6123 8.03972 76.1011 8.28786C75.4461 8.37988 74.813 8.52376 74.2018 8.71952C73.6441 7.7625 73.0974 6.79847 72.5615 5.82743C73.2446 5.15458 74.0503 4.67976 74.9788 4.40297C75.4765 4.28336 75.9656 4.18264 76.4464 4.10081Z" fill="#16997E"/>
<path fill-rule="evenodd" clip-rule="evenodd" d="M107.87 4.10073C110.25 3.95735 112.192 4.79188 113.698 6.60432C113.741 5.85667 113.756 5.10848 113.741 4.35972C115.266 4.35972 116.791 4.35972 118.316 4.35972C118.316 10.0863 118.316 15.813 118.316 21.5396C116.791 21.5396 115.266 21.5396 113.741 21.5396C113.781 18.3136 113.737 15.0906 113.611 11.8705C112.928 9.60398 111.402 8.39538 109.036 8.24461C106.133 8.51454 104.535 10.0973 104.245 12.9928C104.491 15.5549 105.872 17.0944 108.388 17.6115C109.208 17.72 109.999 17.6193 110.763 17.3094C111.413 18.3359 112.032 19.3863 112.619 20.4604C111.067 21.5596 109.341 21.9913 107.439 21.7554C103.071 21.0135 100.467 18.4667 99.6258 14.1151C99.309 10.2445 100.791 7.29486 104.072 5.26619C105.268 4.60825 106.533 4.21976 107.87 4.10073Z" fill="#16997E"/>
<path fill-rule="evenodd" clip-rule="evenodd" d="M130.058 4.10084C131.649 4.06206 133.145 4.40739 134.547 5.13681C133.828 6.403 133.108 7.66918 132.389 8.93537C130.542 7.9649 128.758 8.06562 127.036 9.23753C126.178 9.96193 125.617 10.8684 125.353 11.957C125.31 15.151 125.295 18.3453 125.31 21.5397C123.727 21.5397 122.144 21.5397 120.562 21.5397C120.562 15.8131 120.562 10.0864 120.562 4.35983C122.144 4.35983 123.727 4.35983 125.31 4.35983C125.295 5.07983 125.31 5.79925 125.353 6.5181C126.552 4.99067 128.12 4.18491 130.058 4.10084Z" fill="#16997E"/>
<path fill-rule="evenodd" clip-rule="evenodd" d="M167.956 4.35979C167.956 10.0864 167.956 15.8131 167.956 21.5396C166.431 21.5396 164.906 21.5396 163.381 21.5396C163.396 18.4604 163.381 15.3812 163.338 12.3022C162.776 9.81211 161.222 8.45956 158.676 8.24468C155.776 8.51175 154.179 10.0945 153.885 12.9929C154.129 15.554 155.51 17.0935 158.028 17.6116C158.848 17.7201 159.639 17.6194 160.403 17.3094C161.053 18.336 161.672 19.3864 162.259 20.4605C160.362 21.7391 158.29 22.1131 156.043 21.5828C151.746 20.3074 149.473 17.4298 149.223 12.9497C149.458 8.73591 151.56 5.91572 155.525 4.48929C157.612 3.86438 159.626 4.03704 161.568 5.00727C162.266 5.41681 162.855 5.94918 163.338 6.6044C163.381 5.85674 163.396 5.10855 163.381 4.35979C164.906 4.35979 166.431 4.35979 167.956 4.35979Z" fill="#16997E"/>
<path fill-rule="evenodd" clip-rule="evenodd" d="M140.503 4.18712C144.324 3.95385 147.26 5.43587 149.309 8.63317C148.034 9.41938 146.782 10.2395 145.554 11.0936C144.766 9.37743 143.443 8.39903 141.582 8.15835C139.205 8.43442 137.795 9.75815 137.352 12.1296C137.071 14.1694 137.747 15.7953 139.381 17.0073C142.103 18.2294 144.161 17.5243 145.554 14.8922C146.782 15.7462 148.034 16.5664 149.309 17.3526C146.98 20.9338 143.699 22.3439 139.467 21.5828C135.672 20.4067 133.442 17.86 132.777 13.9425C132.547 10.1283 134.058 7.23621 137.309 5.26626C138.317 4.70571 139.382 4.346 140.503 4.18712Z" fill="#16997E"/>
<path fill-rule="evenodd" clip-rule="evenodd" d="M29.8271 4.35962C31.4962 4.35962 33.1653 4.35962 34.8343 4.35962C36.2415 8.53763 37.7091 12.6959 39.2372 16.8344C38.189 17.8539 37.1674 18.9043 36.1725 19.9855C34.0146 14.7921 31.8995 9.5835 29.8271 4.35962Z" fill="#16997E"/>
<path fill-rule="evenodd" clip-rule="evenodd" d="M44.0719 4.35965C45.7132 4.33091 47.3535 4.35968 48.9927 4.44598C46.6786 10.122 44.3477 15.7911 41.9999 21.4532C40.6474 21.5683 39.2949 21.5683 37.9424 21.4532C40.0202 15.7665 42.0634 10.0686 44.0719 4.35965Z" fill="#16997E"/>
<path fill-rule="evenodd" clip-rule="evenodd" d="M67.0361 4.35962C68.6188 4.35962 70.2016 4.35962 71.7843 4.35962C71.7843 10.0862 71.7843 15.8129 71.7843 21.5395C70.2016 21.5395 68.6188 21.5395 67.0361 21.5395C67.0361 15.8129 67.0361 10.0862 67.0361 4.35962Z" fill="#16997E"/>
<path fill-rule="evenodd" clip-rule="evenodd" d="M93.54 6.25908C95.1078 6.17302 96.6903 6.14424 98.2882 6.17275C98.2882 7.46771 98.2882 8.76268 98.2882 10.0576C97.4241 10.072 96.5608 10.0576 95.6983 10.0145C94.9654 8.76432 94.2462 7.5125 93.54 6.25908Z" fill="#16997E"/>
<path fill-rule="evenodd" clip-rule="evenodd" d="M12.6473 23.9569C12.5898 23.9569 12.5323 23.9569 12.4747 23.9569C11.8956 23.9028 11.3488 23.7158 10.8344 23.3957C10.1352 22.8695 9.48771 22.2796 8.89194 21.6259C7.37467 19.5414 5.92144 17.4119 4.53223 15.2375C4.561 15.2087 4.58978 15.1799 4.61856 15.1511C7.98274 15.4396 11.3496 15.713 14.7193 15.9713C15.5879 16.0682 16.3217 16.428 16.9207 17.0504C17.1301 17.304 17.2164 17.5919 17.1797 17.9137C16.7373 19.241 16.1618 20.5072 15.4531 21.7123C14.8285 22.8713 13.8933 23.6194 12.6473 23.9569Z" fill="#16997E"/>
</g>
<defs>
<clipPath id="clip0_2251_566">
<rect width="168" height="24" fill="white"/>
</clipPath>
</defs>
</svg>
