<svg width="27" height="24" viewBox="0 0 27 24" fill="none" xmlns="http://www.w3.org/2000/svg">
<path d="M13.3333 0C6 0 0 4.77333 0 10.6667C0.033662 12.0836 0.379767 13.4755 1.0136 14.7432C1.64743 16.0109 2.55335 17.1229 3.66667 18C3.66667 18.8 3.10667 20.8933 0 24C3.16 23.8533 6.18667 22.6667 8.62667 20.6667C10.1467 21.1067 11.7467 21.3333 13.3333 21.3333C20.6667 21.3333 26.6667 16.56 26.6667 10.6667C26.6667 4.77333 20.6667 0 13.3333 0ZM13.3333 18.6667C7.44 18.6667 2.66667 15.08 2.66667 10.6667C2.66667 6.25333 7.44 2.66667 13.3333 2.66667C19.2267 2.66667 24 6.25333 24 10.6667C24 15.08 19.2267 18.6667 13.3333 18.6667Z" fill="black"/>
</svg>
