<svg width="24" height="28" viewBox="0 0 24 28" fill="none" xmlns="http://www.w3.org/2000/svg">
<path d="M9.33333 25.3333H14.6667C14.6667 26.8 13.4667 28 12 28C10.5333 28 9.33333 26.8 9.33333 25.3333ZM24 22.6667V24H0V22.6667L2.66667 20V12C2.66667 7.86667 5.33333 4.26667 9.33333 3.06667V2.66667C9.33333 1.2 10.5333 0 12 0C13.4667 0 14.6667 1.2 14.6667 2.66667V3.06667C18.6667 4.26667 21.3333 7.86667 21.3333 12V20L24 22.6667ZM18.6667 12C18.6667 8.26667 15.7333 5.33333 12 5.33333C8.26667 5.33333 5.33333 8.26667 5.33333 12V21.3333H18.6667V12Z" fill="black"/>
</svg>
