<svg width="85" height="74" viewBox="0 0 85 74" fill="none" xmlns="http://www.w3.org/2000/svg">
<path d="M35.976 37.7C38.7969 31.5061 43.9623 26.6861 50.3364 24.3001C56.7105 21.9141 63.7713 22.1575 69.966 24.9767C76.16 27.7975 80.9799 32.963 83.3659 39.3371C85.7519 45.7112 85.5085 52.772 82.6894 58.9667C80.6564 63.4549 77.371 67.2609 73.2279 69.9276C69.0847 72.5943 64.2599 74.0084 59.3327 74C49.4327 74 40.376 68.28 36.1227 59.3333H0.666016V52C0.886016 47.82 3.74602 44.41 9.24602 41.66C14.746 38.91 21.6393 37.48 29.9993 37.3333C32.0893 37.3333 34.0694 37.5167 35.976 37.7ZM29.9993 0.666672C34.106 0.776672 37.5527 2.20667 40.3027 4.95667C43.0527 7.70667 44.4094 11.1533 44.4094 15.3333C44.4094 19.5133 43.0527 22.96 40.3027 25.71C37.5527 28.46 34.106 29.8167 29.9993 29.8167C25.8927 29.8167 22.446 28.46 19.696 25.71C16.946 22.96 15.5893 19.5133 15.5893 15.3333C15.5893 11.1533 16.946 7.70667 19.696 4.95667C22.446 2.20667 25.8927 0.776672 29.9993 0.666672ZM59.3327 66.6667C64.195 66.6667 68.8581 64.7351 72.2963 61.297C75.7345 57.8588 77.666 53.1956 77.666 48.3333C77.666 43.471 75.7345 38.8079 72.2963 35.3697C68.8581 31.9315 64.195 30 59.3327 30C54.4704 30 49.8072 31.9315 46.3691 35.3697C42.9309 38.8079 40.9994 43.471 40.9994 48.3333C40.9994 53.1956 42.9309 57.8588 46.3691 61.297C49.8072 64.7351 54.4704 66.6667 59.3327 66.6667ZM55.666 37.3333H61.166V47.6733L70.1127 52.8433L67.3627 57.61L55.666 50.8633V37.3333Z" fill="#F39C12"/>
</svg>
