<svg width="48" height="48" viewBox="0 0 48 48" fill="none" xmlns="http://www.w3.org/2000/svg">
<path d="M1.87891 10.5771L9.40119 14.6228L16.1212 13.464C17.24 13.2704 18.3879 13.3284 19.4815 13.6338C20.5751 13.9392 21.5869 14.4844 22.4435 15.2297M38.6812 31.824L28.0458 39.3805C26.9039 40.1917 25.541 40.6338 24.1405 40.6473C22.7399 40.6608 21.3687 40.245 20.2115 39.456L1.87891 26.9588" stroke="black" stroke-width="3.42857" stroke-linecap="round" stroke-linejoin="round"/>
<path d="M45.9497 26.88L38.424 32.0228L26.7463 22.5943L22.4503 25.7177C21.6094 26.3282 20.5645 26.5885 19.5356 26.444C18.5066 26.2995 17.5738 25.7613 16.9337 24.9428C16.297 24.1248 16.0017 23.092 16.1097 22.061C16.2178 21.03 16.7207 20.0809 17.5131 19.4126L21.9874 15.6514C23.048 14.7587 24.278 14.0895 25.6037 13.6842C26.9293 13.2788 28.3233 13.1456 29.7017 13.2926L36.672 14.04L45.9497 9.02399" stroke="black" stroke-width="3.42857" stroke-linecap="round" stroke-linejoin="round"/>
<path d="M26.7461 22.6183C29.5575 25.1211 33.5415 23.8423 35.0227 21.7988" stroke="black" stroke-width="3.42857" stroke-linecap="round" stroke-linejoin="round"/>
</svg>
