<svg width="32" height="33" viewBox="0 0 32 33" fill="none" xmlns="http://www.w3.org/2000/svg">
<path d="M16.0001 4.5C8.66675 4.5 2.66675 9.27333 2.66675 15.1667C2.70041 16.5836 3.04652 17.9755 3.68035 19.2432C4.31418 20.5109 5.2201 21.6229 6.33341 22.5C6.33341 23.3 5.77341 25.3933 2.66675 28.5C5.82675 28.3533 8.85342 27.1667 11.2934 25.1667C12.8134 25.6067 14.4134 25.8333 16.0001 25.8333C23.3334 25.8333 29.3334 21.06 29.3334 15.1667C29.3334 9.27333 23.3334 4.5 16.0001 4.5ZM16.0001 23.1667C10.1067 23.1667 5.33341 19.58 5.33341 15.1667C5.33341 10.7533 10.1067 7.16667 16.0001 7.16667C21.8934 7.16667 26.6667 10.7533 26.6667 15.1667C26.6667 19.58 21.8934 23.1667 16.0001 23.1667Z" fill="white"/>
</svg>
