<svg width="24" height="24" viewBox="0 0 24 24" fill="none" xmlns="http://www.w3.org/2000/svg">
<path d="M21.4284 6.14092C20.7344 6.45641 19.9862 6.66373 19.211 6.76288C20.0042 6.28514 20.6172 5.52797 20.9056 4.61757C20.1575 5.06826 19.3282 5.38375 18.4538 5.56403C17.7417 4.78883 16.7412 4.33813 15.6054 4.33813C13.4872 4.33813 11.7565 6.06881 11.7565 8.20511C11.7565 8.51158 11.7925 8.80904 11.8556 9.08848C8.64668 8.92623 5.78926 7.38484 3.88732 5.05024C3.55381 5.61811 3.36452 6.28514 3.36452 6.98823C3.36452 8.33131 4.04056 9.52114 5.08618 10.1972C4.44619 10.1972 3.85127 10.0169 3.32846 9.74649V9.77353C3.32846 11.6484 4.66252 13.2169 6.42925 13.5684C5.86213 13.7243 5.26649 13.7459 4.68956 13.6315C4.93439 14.3999 5.41387 15.0723 6.0606 15.5541C6.70733 16.0359 7.48879 16.3029 8.29514 16.3176C6.92833 17.3998 5.23401 17.9847 3.49071 17.9762C3.18424 17.9762 2.87776 17.9582 2.57129 17.9221C4.28394 19.0218 6.32108 19.6618 8.50246 19.6618C15.6054 19.6618 19.5085 13.7667 19.5085 8.65581C19.5085 8.48454 19.5085 8.32229 19.4995 8.15103C20.2566 7.61019 20.9056 6.92513 21.4284 6.14092Z" fill="black"/>
</svg>
